<svg width="26" height="26" viewBox="0 0 26 26" fill="none" xmlns="http://www.w3.org/2000/svg">
<path d="M6.41996 15.4651L5.59721 18.5365L2.59008 18.6001C1.69139 16.9333 1.18164 15.0262 1.18164 12.9995C1.18164 11.0398 1.65825 9.19171 2.50306 7.56445H2.50371L5.1809 8.05528L6.35367 10.7164C6.10821 11.432 5.97442 12.2002 5.97442 12.9995C5.97451 13.8671 6.13166 14.6982 6.41996 15.4651Z" fill="#FBBB00"/>
<path d="M24.6116 10.793C24.7474 11.5079 24.8181 12.2462 24.8181 13.0008C24.8181 13.8469 24.7292 14.6722 24.5597 15.4683C23.9844 18.1774 22.4811 20.543 20.3987 22.217L20.398 22.2163L17.026 22.0443L16.5487 19.065C17.9305 18.2547 19.0104 16.9865 19.5793 15.4683H13.2598V10.793H19.6715H24.6116Z" fill="#518EF8"/>
<path d="M20.3976 22.2148L20.3983 22.2155C18.373 23.8434 15.8002 24.8174 12.9996 24.8174C8.49893 24.8174 4.58596 22.3018 2.58984 18.5999L6.41972 15.4648C7.41775 18.1285 9.98724 20.0246 12.9996 20.0246C14.2944 20.0246 15.5074 19.6746 16.5483 19.0635L20.3976 22.2148Z" fill="#28B446"/>
<path d="M20.5432 3.90241L16.7146 7.03681C15.6374 6.36345 14.364 5.97447 12.9997 5.97447C9.91916 5.97447 7.30162 7.95757 6.35358 10.7167L2.50358 7.56475H2.50293C4.46983 3.77255 8.43215 1.18164 12.9997 1.18164C15.8672 1.18164 18.4964 2.20308 20.5432 3.90241Z" fill="#F14336"/>
</svg>
