<svg width="35" height="25" viewBox="0 0 35 25" fill="none" xmlns="http://www.w3.org/2000/svg">
<g clip-path="url(#clip0_1531_36)">
<path d="M26.6628 15.7372C24.2175 15.7372 22.2281 17.7265 22.2281 20.1718C22.2281 22.6171 24.2175 24.6065 26.6628 24.6065C29.1085 24.6065 31.0975 22.6171 31.0975 20.1718C31.0975 17.7265 29.1081 15.7372 26.6628 15.7372ZM26.6628 22.3892C25.44 22.3892 24.4455 21.3947 24.4455 20.1718C24.4455 18.949 25.44 17.9545 26.6628 17.9545C27.8856 17.9545 28.8801 18.949 28.8801 20.1718C28.8801 21.3947 27.8856 22.3892 26.6628 22.3892ZM11.5111 15.7372C9.06575 15.7372 7.07642 17.7265 7.07642 20.1718C7.07642 22.6171 9.06575 24.6065 11.5111 24.6065C13.9564 24.6065 15.9457 22.6171 15.9457 20.1718C15.9457 17.7265 13.9564 15.7372 11.5111 15.7372ZM11.5111 22.3892C10.2882 22.3892 9.29375 21.3947 9.29375 20.1718C9.29375 18.949 10.2882 17.9545 11.5111 17.9545C12.7336 17.9545 13.7284 18.949 13.7284 20.1718C13.7284 21.3947 12.7339 22.3892 11.5111 22.3892ZM29.6492 3.04375C29.5568 2.8602 29.4152 2.70592 29.2403 2.59812C29.0653 2.49032 28.8639 2.43323 28.6584 2.43323H22.8194V4.65056H27.9747L30.9936 10.6551L32.9751 9.65871L29.6492 3.04375Z" fill="#4A4A4A"/>
<path d="M14.9484 19.0995H23.3373V21.3168H14.9484V19.0995ZM8.18549 19.0995H4.34218C3.7298 19.0995 3.23355 19.5958 3.23355 20.2081C3.23355 20.8205 3.72987 21.3167 4.34218 21.3167H8.18556C8.79794 21.3167 9.29419 20.8204 9.29419 20.2081C9.29419 19.5957 8.79787 19.0995 8.18549 19.0995ZM35.0411 12.3218L32.8604 9.51318C32.7568 9.37965 32.6241 9.27159 32.4723 9.19728C32.3206 9.12297 32.1538 9.08438 31.9849 9.08447H23.9286V1.32384C23.9286 0.711462 23.4322 0.21521 22.8199 0.21521H4.34218C3.7298 0.21521 3.23355 0.711531 3.23355 1.32384C3.23355 1.93615 3.72987 2.43247 4.34218 2.43247H21.7112V10.1931C21.7112 10.8055 22.2076 11.3017 22.8199 11.3017H31.442L33.0565 13.3816V19.0993H29.9892C29.3768 19.0993 28.8806 19.5957 28.8806 20.208C28.8806 20.8203 29.3769 21.3166 29.9892 21.3166H34.1652C34.7775 21.3166 35.2738 20.8203 35.2739 20.208V13.0018C35.2739 12.7557 35.1918 12.5162 35.0411 12.3218ZM8.11162 13.4822H3.01174C2.39936 13.4822 1.90311 13.9786 1.90311 14.5909C1.90311 15.2032 2.39943 15.6995 3.01174 15.6995H8.11156C8.72393 15.6995 9.22019 15.2032 9.22019 14.5909C9.22026 13.9786 8.72393 13.4822 8.11162 13.4822ZM10.6615 9.12144H1.20092C0.588607 9.12144 0.0922852 9.61776 0.0922852 10.2301C0.0922852 10.8425 0.588607 11.3388 1.20092 11.3388H10.6615C11.2739 11.3388 11.7702 10.8424 11.7702 10.2301C11.7702 9.61783 11.2739 9.12144 10.6615 9.12144Z" fill="#4A4A4A"/>
<path d="M12.4728 4.75989H3.0122C2.39982 4.75989 1.90356 5.25621 1.90356 5.86852C1.90356 6.4809 2.39989 6.97715 3.0122 6.97715H12.4728C13.0852 6.97715 13.5814 6.48083 13.5814 5.86852C13.5815 5.25621 13.0852 4.75989 12.4728 4.75989Z" fill="#4A4A4A"/>
</g>
<defs>
<clipPath id="clip0_1531_36">
<rect width="35" height="25" fill="white"/>
</clipPath>
</defs>
</svg>
