<svg width="23" height="25" viewBox="0 0 23 25" fill="none" xmlns="http://www.w3.org/2000/svg">
<path d="M20.865 7.51636L13.5009 1.06053C12.8258 0.456734 11.9519 0.122925 11.0462 0.122925C10.1405 0.122925 9.26659 0.456734 8.59153 1.06053L1.22746 7.51636C0.837617 7.86502 0.526524 8.29273 0.314896 8.77101C0.103267 9.24929 -0.0040411 9.76717 0.000116345 10.2902V21.0172C0.000116345 21.9937 0.388044 22.9302 1.07856 23.6207C1.76907 24.3113 2.70561 24.6992 3.68215 24.6992H18.4103C19.3868 24.6992 20.3234 24.3113 21.0139 23.6207C21.7044 22.9302 22.0923 21.9937 22.0923 21.0172V10.2779C22.0947 9.75696 21.9866 9.24145 21.775 8.76541C21.5634 8.28937 21.2533 7.86365 20.865 7.51636ZM13.5009 22.2445H8.59153V16.1078C8.59153 15.7823 8.72084 15.4701 8.95101 15.2399C9.18118 15.0097 9.49336 14.8804 9.81887 14.8804H12.2736C12.5991 14.8804 12.9113 15.0097 13.1414 15.2399C13.3716 15.4701 13.5009 15.7823 13.5009 16.1078V22.2445ZM19.6376 21.0172C19.6376 21.3427 19.5083 21.6548 19.2781 21.885C19.048 22.1152 18.7358 22.2445 18.4103 22.2445H15.9556V16.1078C15.9556 15.1312 15.5677 14.1947 14.8772 13.5042C14.1866 12.8137 13.2501 12.4257 12.2736 12.4257H9.81887C8.84234 12.4257 7.9058 12.8137 7.21528 13.5042C6.52477 14.1947 6.13684 15.1312 6.13684 16.1078V22.2445H3.68215C3.35664 22.2445 3.04446 22.1152 2.81429 21.885C2.58411 21.6548 2.45481 21.3427 2.45481 21.0172V10.2779C2.45503 10.1036 2.49235 9.93141 2.56431 9.77269C2.63626 9.61397 2.74118 9.4724 2.8721 9.35738L10.2362 2.91382C10.4601 2.71706 10.7481 2.60854 11.0462 2.60854C11.3443 2.60854 11.6323 2.71706 11.8563 2.91382L19.2203 9.35738C19.3512 9.4724 19.4562 9.61397 19.5281 9.77269C19.6001 9.93141 19.6374 10.1036 19.6376 10.2779V21.0172Z" fill="#4A4A4A"/>
</svg>
