<svg width="29" height="29" viewBox="0 0 29 29" fill="none" xmlns="http://www.w3.org/2000/svg">
<path d="M14.4994 2.41724C11.9366 2.42011 9.47947 3.43949 7.66724 5.25172C5.85502 7.06394 4.83564 9.52103 4.83276 12.0839C4.83276 16.017 7.68806 19.2832 10.7125 22.7402C11.6695 23.8349 12.6603 24.9672 13.5424 26.1127C13.6553 26.2591 13.8003 26.3777 13.9662 26.4593C14.1321 26.5408 14.3145 26.5833 14.4994 26.5833C14.6843 26.5833 14.8667 26.5408 15.0327 26.4593C15.1986 26.3777 15.3436 26.2591 15.4564 26.1127C16.3385 24.9672 17.3293 23.8349 18.2863 22.7402C21.3108 19.2832 24.1661 16.017 24.1661 12.0839C24.1632 9.52103 23.1438 7.06394 21.3316 5.25172C19.5194 3.43949 17.0623 2.42011 14.4994 2.41724ZM14.4994 15.7089C13.7825 15.7089 13.0816 15.4963 12.4855 15.098C11.8894 14.6997 11.4247 14.1335 11.1504 13.4711C10.876 12.8087 10.8042 12.0799 10.9441 11.3767C11.084 10.6735 11.4292 10.0276 11.9362 9.52064C12.4431 9.01368 13.089 8.66843 13.7922 8.52856C14.4954 8.38868 15.2243 8.46047 15.8867 8.73484C16.549 9.00921 17.1152 9.47383 17.5135 10.07C17.9118 10.6661 18.1244 11.3669 18.1244 12.0839C18.1244 13.0453 17.7425 13.9673 17.0627 14.6472C16.3829 15.327 15.4608 15.7089 14.4994 15.7089Z" fill="#EB0067"/>
</svg>
