<svg width="15" height="21" viewBox="0 0 15 21" fill="none" xmlns="http://www.w3.org/2000/svg">
<path d="M7.54128 18.2305C7.81995 18.2305 8.71445 17.8252 9.99427 16.5343C12.0275 14.4929 14.4014 10.9053 14.4014 7.52788C14.4014 5.53136 13.6743 3.61662 12.38 2.20486C11.0858 0.793113 9.33036 0 7.5 0C5.66964 0 3.91425 0.793113 2.61999 2.20486C1.32573 3.61662 0.598624 5.53136 0.598624 7.52788C0.598624 12.8342 6.26491 18.1179 7.54128 18.2305ZM7.5 3.04342C8.1505 3.04342 8.78639 3.25383 9.32727 3.64804C9.86814 4.04224 10.2897 4.60254 10.5386 5.25809C10.7876 5.91363 10.8527 6.63497 10.7258 7.33088C10.5989 8.0268 10.2856 8.66605 9.82567 9.16778C9.36569 9.66951 8.77965 10.0112 8.14165 10.1496C7.50365 10.288 6.84234 10.217 6.24136 9.94546C5.64037 9.67393 5.1267 9.2141 4.7653 8.62413C4.40391 8.03416 4.21101 7.34054 4.21101 6.63099C4.21192 5.67981 4.55873 4.76788 5.17534 4.09529C5.79195 3.42271 6.62798 3.04442 7.5 3.04342ZM15 18.936C15 19.6378 12.3544 21 7.5 21C2.64564 21 0 19.6378 0 18.936C0 18.4669 1.23853 17.5963 3.99771 17.146C4.04565 17.1377 4.09209 17.1213 4.13532 17.0972C5.4289 18.4294 6.69495 19.285 7.45872 19.3488H7.55505C8.58716 19.3488 10.0906 17.9641 10.6961 17.3561C10.7718 17.2811 10.8475 17.1985 10.9232 17.116C10.9491 17.1252 10.9755 17.1327 11.0023 17.1385C13.7615 17.5963 15 18.4669 15 18.936Z" fill="#EB0067"/>
</svg>
