<svg width="18" height="18" viewBox="0 0 18 18" fill="none" xmlns="http://www.w3.org/2000/svg">
<g clip-path="url(#clip0_1446_4963)">
<path d="M14.3022 3.69703C13.0716 2.4584 11.4475 1.68794 9.70969 1.51846C7.97193 1.34898 6.22948 1.79111 4.78276 2.76863C3.33604 3.74614 2.2757 5.19778 1.78455 6.87329C1.29339 8.54879 1.4022 10.3432 2.09222 11.947C2.16414 12.0961 2.18774 12.2639 2.15972 12.427L1.49972 15.5995C1.47429 15.7212 1.47949 15.8472 1.51483 15.9663C1.55018 16.0855 1.61457 16.1939 1.70222 16.282C1.77408 16.3534 1.85963 16.4094 1.95372 16.4468C2.04782 16.4842 2.14851 16.5021 2.24972 16.4995H2.39972L5.60972 15.8545C5.77287 15.8349 5.93831 15.8582 6.08972 15.922C7.6936 16.612 9.48796 16.7209 11.1635 16.2297C12.839 15.7386 14.2906 14.6782 15.2681 13.2315C16.2456 11.7848 16.6878 10.0423 16.5183 8.30456C16.3488 6.5668 15.5783 4.94262 14.3397 3.71203L14.3022 3.69703ZM5.99972 9.74953C5.85139 9.74953 5.70638 9.70554 5.58305 9.62313C5.45971 9.54072 5.36358 9.42359 5.30681 9.28654C5.25005 9.1495 5.23519 8.9987 5.26413 8.85321C5.29307 8.70773 5.3645 8.57409 5.46939 8.4692C5.57428 8.36431 5.70792 8.29288 5.8534 8.26394C5.99889 8.235 6.14969 8.24985 6.28674 8.30662C6.42378 8.36338 6.54091 8.45951 6.62332 8.58285C6.70574 8.70619 6.74972 8.85119 6.74972 8.99953C6.74972 9.19844 6.67071 9.38921 6.53005 9.52986C6.3894 9.67051 6.19864 9.74953 5.99972 9.74953ZM8.99972 9.74953C8.85139 9.74953 8.70638 9.70554 8.58305 9.62313C8.45971 9.54072 8.36358 9.42359 8.30681 9.28654C8.25005 9.1495 8.2352 8.9987 8.26413 8.85321C8.29307 8.70773 8.3645 8.57409 8.46939 8.4692C8.57428 8.36431 8.70792 8.29288 8.85341 8.26394C8.99889 8.235 9.14969 8.24985 9.28674 8.30662C9.42378 8.36338 9.54091 8.45951 9.62333 8.58285C9.70574 8.70619 9.74972 8.85119 9.74972 8.99953C9.74972 9.19844 9.67071 9.38921 9.53005 9.52986C9.3894 9.67051 9.19864 9.74953 8.99972 9.74953ZM11.9997 9.74953C11.8514 9.74953 11.7064 9.70554 11.583 9.62313C11.4597 9.54072 11.3636 9.42359 11.3068 9.28654C11.25 9.1495 11.2352 8.9987 11.2641 8.85321C11.2931 8.70773 11.3645 8.57409 11.4694 8.4692C11.5743 8.36431 11.7079 8.29288 11.8534 8.26394C11.9989 8.235 12.1497 8.24985 12.2867 8.30662C12.4238 8.36338 12.5409 8.45951 12.6233 8.58285C12.7057 8.70619 12.7497 8.85119 12.7497 8.99953C12.7497 9.19844 12.6707 9.38921 12.5301 9.52986C12.3894 9.67051 12.1986 9.74953 11.9997 9.74953Z" fill="#EB0067"/>
</g>
<defs>
<clipPath id="clip0_1446_4963">
<rect width="18" height="18" fill="white"/>
</clipPath>
</defs>
</svg>
