<svg width="24" height="26" viewBox="0 0 24 26" fill="none" xmlns="http://www.w3.org/2000/svg">
<path d="M22.2299 16.1907C21.8703 15.833 21.5852 15.4075 21.3911 14.9389C21.197 14.4703 21.0978 13.9678 21.0991 13.4606V10.2848C21.0991 7.79938 20.1118 5.41578 18.3543 3.65834C16.5969 1.90089 14.2133 0.913574 11.7279 0.913574C9.24247 0.913574 6.85887 1.90089 5.10143 3.65834C3.34399 5.41578 2.35667 7.79938 2.35667 10.2848V13.4606C2.35799 13.9678 2.25874 14.4703 2.06464 14.9389C1.87054 15.4075 1.58546 15.833 1.22587 16.1907C0.771342 16.6452 0.461795 17.2243 0.336383 17.8547C0.210971 18.4851 0.275327 19.1386 0.521312 19.7324C0.767296 20.3262 1.18386 20.8338 1.71832 21.1909C2.25278 21.548 2.88113 21.7385 3.5239 21.7385H6.62577C6.86475 22.9154 7.50326 23.9735 8.4331 24.7335C9.36295 25.4935 10.5269 25.9087 11.7279 25.9087C12.9288 25.9087 14.0928 25.4935 15.0226 24.7335C15.9525 23.9735 16.591 22.9154 16.83 21.7385H19.9329C20.5757 21.7385 21.204 21.548 21.7385 21.1909C22.2729 20.8338 22.6895 20.3262 22.9355 19.7324C23.1815 19.1386 23.2458 18.4851 23.1204 17.8547C22.995 17.2243 22.6844 16.6452 22.2299 16.1907ZM11.7279 23.821C11.0841 23.8183 10.4569 23.6168 9.93204 23.244C9.40718 22.8713 9.01031 22.3454 8.79573 21.7385H14.66C14.4454 22.3454 14.0486 22.8713 13.5237 23.244C12.9988 23.6168 12.3716 23.8183 11.7279 23.821ZM19.9318 19.656H3.5239C3.29294 19.6561 3.06714 19.5877 2.87506 19.4595C2.68298 19.3312 2.53326 19.1489 2.44486 18.9355C2.35646 18.7222 2.33334 18.4874 2.37844 18.2608C2.42353 18.0343 2.53481 17.8263 2.69819 17.663C3.25177 17.1124 3.69067 16.4575 3.9895 15.7361C4.28833 15.0148 4.44116 14.2414 4.43916 13.4606V10.2848C4.43916 8.35169 5.20707 6.49778 6.57397 5.13088C7.94087 3.76398 9.79478 2.99606 11.7279 2.99606C13.661 2.99606 15.5149 3.76398 16.8818 5.13088C18.2487 6.49778 19.0166 8.35169 19.0166 10.2848V13.4606C19.0146 14.2414 19.1674 15.0148 19.4662 15.7361C19.7651 16.4575 20.204 17.1124 20.7575 17.663C20.9209 17.8263 21.0322 18.0343 21.0773 18.2608C21.1224 18.4874 21.0993 18.7222 21.0109 18.9355C20.9225 19.1489 20.7728 19.3312 20.5807 19.4595C20.3886 19.5877 20.1628 19.6561 19.9318 19.656Z" fill="#4A4A4A"/>
</svg>
