<svg width="29" height="29" viewBox="0 0 29 29" fill="none" xmlns="http://www.w3.org/2000/svg">
<path fill-rule="evenodd" clip-rule="evenodd" d="M14.3182 14.3174C16.9553 14.3174 19.0908 12.1819 19.0908 9.54473C19.0908 6.90757 16.9553 4.77203 14.3182 4.77203C11.681 4.77203 9.54546 6.90757 9.54546 9.54473C9.54546 12.1819 11.681 14.3174 14.3182 14.3174ZM20.284 9.54473C20.284 12.8409 17.6143 15.5106 14.3182 15.5106C11.022 15.5106 8.35228 12.8409 8.35228 9.54473C8.35228 6.24858 11.022 3.57886 14.3182 3.57886C17.6143 3.57886 20.284 6.24858 20.284 9.54473ZM5.50268 20.4097C4.90424 20.8925 4.77276 21.2552 4.77276 21.4765V23.8628H23.8635V21.4765C23.8635 21.2552 23.7321 20.8925 23.1336 20.4097C22.5485 19.9377 21.6765 19.488 20.6194 19.0991C18.5061 18.3215 15.9607 17.8969 14.3182 17.8969C12.6756 17.8969 10.1302 18.3215 8.01688 19.0991C6.95979 19.488 6.08776 19.9377 5.50268 20.4097ZM14.3182 16.7038C10.7342 16.7038 3.57959 18.5142 3.57959 21.4765V25.056H25.0567V21.4765C25.0567 18.5142 17.9021 16.7038 14.3182 16.7038Z" fill="#4A4A4A" stroke="#4A4A4A"/>
</svg>
